<?xml version="1.0" encoding="UTF-8" standalone="no"?><!DOCTYPE svg PUBLIC "-//W3C//DTD SVG 1.1//EN" "http://www.w3.org/Graphics/SVG/1.1/DTD/svg11.dtd"><svg width="100%" height="100%" viewBox="0 0 3500 2000" version="1.1" xmlns="http://www.w3.org/2000/svg" xmlns:xlink="http://www.w3.org/1999/xlink" xml:space="preserve" xmlns:serif="http://www.serif.com/" style="fill-rule:evenodd;clip-rule:evenodd;"><rect x="0" y="0" width="3500" height="2000" style="fill:url(#_Linear1);"/><path d="M248,315l466,26l172,274l-14,329l-301,90l-284,-115l-67,-264l28,-340Z" style="fill:none;"/><path d="M1036.057,264.119c38.117,-29.984 139.507,-29.056 139.719,-29.063c27.326,-0.833 55.388,-5.66 82.016,0.536c32.453,7.552 59.208,32.328 91.661,39.88c-17.442,16.861 -30.24,38.123 -47.682,54.984c-14.552,14.068 -63.268,24.825 -56.396,123.052c8.31,118.767 41.394,105.246 118.203,196.063c8.583,10.149 0.606,46.171 -0.26,50.083c-6.307,28.479 -18.145,55.747 -22.297,84.62c-4.612,32.07 0.773,65.055 -3.839,97.125l-7.448,-4.245c-49.655,122.172 -39.935,128.783 -126.844,227.578c-6.345,7.212 -61.78,70.229 -104.229,59.615c-40.117,-10.031 -81.653,-21.193 -115.786,-44.536c-11.957,-8.177 -98.2,-67.16 -112.286,-142.047c-20.914,-111.188 0.069,-193.753 4.208,-210.042c16.438,-64.68 61.756,-152.371 68.318,-165.068c36.261,-70.166 35.803,-73.102 19.292,-150.609c-17.739,-83.272 -37.951,-77.536 -49.849,-161.641c-3.231,-22.838 41.622,-61.831 80.151,-36.583c20.988,13.753 20.352,25.948 42.484,14.177c6.654,-3.539 16.425,-12.036 17.76,-13.198" style="fill:none;"/><path d="M191.169,-527.106c-14.901,6.329 -1083.767,1593.757 -590.959,1856.192c145.876,77.683 756.476,204.116 992.097,43.043c244.479,-167.128 347.41,-671.471 260.239,-809.976c-210.799,-334.936 64.342,-320.291 169.085,-458.466c65.292,-86.131 48.634,-509.741 18.903,-563.302c-26.898,-48.457 -332.876,-219.193 -480.566,-196.463c-9.849,1.516 -264.323,68.153 -303.144,89.445" style="fill:url(#_Linear2);"/><path d="M1513.965,-266.191c-135.107,180.164 -101.058,501.091 -93.741,520.477c11.768,31.177 74.119,50.25 81.48,52.502c203.529,62.257 574.097,71.093 690.998,408.78c3.566,10.302 1.042,10.686 0.503,10.101c-0.488,-0.529 -10.1,-13.632 6.814,-5.802c307.256,142.242 308.14,141.35 635.586,220.237c28.712,6.917 255.447,61.541 368.473,-0.308c163.186,-89.297 137.537,-213.024 137.537,-305.268c-0,-575.326 -646.533,-627.764 -795.518,-690.247c-80.471,-33.749 -299.214,-125.353 -304.37,-127.801c-76.894,-36.522 -417.409,-198.254 -1021.982,-280.811c-15.792,-2.156 -24.902,-4.205 -18.94,11.284c23.927,62.157 0.793,70.945 50.064,148.632c64.144,101.137 181.974,-28.046 263.094,38.224Z" style="fill:url(#_Linear3);"/><rect x="1600" y="0" width="300" height="900" style="fill:none;"/><rect x="1600" y="1150" width="300" height="850" style="fill:none;"/><defs><linearGradient id="_Linear1" x1="0" y1="0" x2="1" y2="0" gradientUnits="userSpaceOnUse" gradientTransform="matrix(3,1699,-1699,3,1332,176)"><stop offset="0" style="stop-color:#898a61;stop-opacity:1"/><stop offset="1" style="stop-color:#616227;stop-opacity:1"/></linearGradient><linearGradient id="_Linear2" x1="0" y1="0" x2="1" y2="0" gradientUnits="userSpaceOnUse" gradientTransform="matrix(-111,-1176,1176,-111,295,1193)"><stop offset="0" style="stop-color:#88ae6e;stop-opacity:1"/><stop offset="1" style="stop-color:#4f8729;stop-opacity:1"/></linearGradient><linearGradient id="_Linear3" x1="0" y1="0" x2="1" y2="0" gradientUnits="userSpaceOnUse" gradientTransform="matrix(73,-508,508,73,2377,574)"><stop offset="0" style="stop-color:#6b9b6e;stop-opacity:1"/><stop offset="1" style="stop-color:#2c7231;stop-opacity:1"/></linearGradient></defs></svg>