<svg viewBox="0 0 3500 2000" width="3500" height="2000" xmlns="http://www.w3.org/2000/svg">
  <rect width="3500" height="2000" fill="white"/>
  <path d="M 0 0 L 0 2000 M 50 0 L 50 2000 M 100 0 L 100 2000 M 150 0 L 150 2000 M 200 0 L 200 2000 M 250 0 L 250 2000 M 300 0 L 300 2000 M 350 0 L 350 2000 M 400 0 L 400 2000 M 450 0 L 450 2000 M 500 0 L 500 2000 M 550 0 L 550 2000 M 600 0 L 600 2000 M 650 0 L 650 2000 M 700 0 L 700 2000 M 750 0 L 750 2000 M 800 0 L 800 2000 M 850 0 L 850 2000 M 900 0 L 900 2000 M 950 0 L 950 2000 M 1000 0 L 1000 2000 M 1050 0 L 1050 2000 M 1100 0 L 1100 2000 M 1150 0 L 1150 2000 M 1200 0 L 1200 2000 M 1250 0 L 1250 2000 M 1300 0 L 1300 2000 M 1350 0 L 1350 2000 M 1400 0 L 1400 2000 M 1450 0 L 1450 2000 M 1500 0 L 1500 2000 M 1550 0 L 1550 2000 M 1600 0 L 1600 2000 M 1650 0 L 1650 2000 M 1700 0 L 1700 2000 M 1750 0 L 1750 2000 M 1800 0 L 1800 2000 M 1850 0 L 1850 2000 M 1900 0 L 1900 2000 M 1950 0 L 1950 2000 M 2000 0 L 2000 2000 M 2050 0 L 2050 2000 M 2100 0 L 2100 2000 M 2150 0 L 2150 2000 M 2200 0 L 2200 2000 M 2250 0 L 2250 2000 M 2300 0 L 2300 2000 M 2350 0 L 2350 2000 M 2400 0 L 2400 2000 M 2450 0 L 2450 2000 M 2500 0 L 2500 2000 M 2550 0 L 2550 2000 M 2600 0 L 2600 2000 M 2650 0 L 2650 2000 M 2700 0 L 2700 2000 M 2750 0 L 2750 2000 M 2800 0 L 2800 2000 M 2850 0 L 2850 2000 M 2900 0 L 2900 2000 M 2950 0 L 2950 2000 M 3000 0 L 3000 2000 M 3050 0 L 3050 2000 M 3100 0 L 3100 2000 M 3150 0 L 3150 2000 M 3200 0 L 3200 2000 M 3250 0 L 3250 2000 M 3300 0 L 3300 2000 M 3350 0 L 3350 2000 M 3400 0 L 3400 2000 M 3450 0 L 3450 2000 M 3500 0 L 3500 2000" stroke="#D4C4A0" stroke-width="0.5" fill="none"/>
  <path d="M 0 0 L 3500 0 M 0 50 L 3500 50 M 0 100 L 3500 100 M 0 150 L 3500 150 M 0 200 L 3500 200 M 0 250 L 3500 250 M 0 300 L 3500 300 M 0 350 L 3500 350 M 0 400 L 3500 400 M 0 450 L 3500 450 M 0 500 L 3500 500 M 0 550 L 3500 550 M 0 600 L 3500 600 M 0 650 L 3500 650 M 0 700 L 3500 700 M 0 750 L 3500 750 M 0 800 L 3500 800 M 0 850 L 3500 850 M 0 900 L 3500 900 M 0 950 L 3500 950 M 0 1000 L 3500 1000 M 0 1050 L 3500 1050 M 0 1100 L 3500 1100 M 0 1150 L 3500 1150 M 0 1200 L 3500 1200 M 0 1250 L 3500 1250 M 0 1300 L 3500 1300 M 0 1350 L 3500 1350 M 0 1400 L 3500 1400 M 0 1450 L 3500 1450 M 0 1500 L 3500 1500 M 0 1550 L 3500 1550 M 0 1600 L 3500 1600 M 0 1650 L 3500 1650 M 0 1700 L 3500 1700 M 0 1750 L 3500 1750 M 0 1800 L 3500 1800 M 0 1850 L 3500 1850 M 0 1900 L 3500 1900 M 0 1950 L 3500 1950 M 0 2000 L 3500 2000" stroke="#D4C4A0" stroke-width="0.5" fill="none"/>
</svg>
